<svg xmlns="http://www.w3.org/2000/svg" width="32" height="32" fill="none" viewBox="0 0 32 32">
  <path fill="#fff" d="M14.286 21.5v-4H9.714C8.764 17.5 8 16.831 8 16s.764-1.5 1.714-1.5h4.572v-4c0-.831.764-1.5 1.714-1.5s1.714.669 1.714 1.5v4h4.572c.95 0 1.714.669 1.714 1.5s-.764 1.5-1.714 1.5h-4.572v4c0 .831-.764 1.5-1.714 1.5s-1.714-.669-1.714-1.5ZM0 6c0-2.21 2.046-4 4.571-4H27.43C29.95 2 32 3.79 32 6v20c0 2.206-2.05 4-4.571 4H4.57C2.046 30 0 28.206 0 26V6Zm3.429 0v20c0 .55.511 1 1.142 1H27.43c.628 0 1.142-.45 1.142-1V6c0-.553-.514-1-1.142-1H4.57c-.63 0-1.14.447-1.14 1Z"/>
</svg>
