<svg xmlns="http://www.w3.org/2000/svg" width="32" height="32" fill="none" viewBox="0 0 32 32">
  <g clip-path="url(#a)">
    <path fill="#fff" d="M31.35.262a1.506 1.506 0 0 0-1.59-.067L.756 16.694a1.5 1.5 0 0 0 .161 2.687l9.582 4.024v7.093c0 .55.3 1.053.781 1.317.225.123.468.185.662.185.283 0 .565-.08.812-.238l6.95-4.466 6.16 2.587a1.504 1.504 0 0 0 1.318-.076 1.498 1.498 0 0 0 .746-1.086l4-27c.14-.568-.11-1.135-.58-1.46ZM23.08 7.45 11.388 20.506 4.89 17.794 23.08 7.45Zm-9.637 20.3v-3.085l2.903 1.22-2.903 1.865ZM25.3 26.37l-11.037-4.637L28.299 6.138l-3 20.231Z"/>
  </g>
  <defs>
    <clipPath id="a">
      <path fill="#fff" d="M0 0h32v32H0z"/>
    </clipPath>
  </defs>
</svg>
