<svg xmlns="http://www.w3.org/2000/svg" width="64" height="56" fill="none" viewBox="0 0 64 56">
  <path fill="#fff" d="M16 32V4.004c0-2.209-1.791-3.888-4-3.888H4c-2.209 0-4 1.791-4 3.888V31.89c0 2.21 1.791 3.89 4 3.89h8c2.213.221 4-1.567 4-3.779Zm44.188-7.363c.155-.64.234-1.296.234-1.954a8.36 8.36 0 0 0-3.66-6.91 8.307 8.307 0 0 0-3.524-7.994c-.304-4.34-3.934-7.776-8.35-7.776h-6.566A21.04 21.04 0 0 0 25.784 4.18L21.2 7.616a2.977 2.977 0 0 0-1.2 2.392c0 1.595 1.287 3.005 3.004 3.005.627 0 1.259-.196 1.798-.602l4.582-3.439a15.006 15.006 0 0 1 8.938-2.976h6.566a2.373 2.373 0 0 1 2.371 2.369c0 .437-.139.617-.139 1.182 0 3.371 3.722 2.239 3.722 5.08 0 1.157-.8 1.37-.8 2.781 0 1.746 1.357 2.744 2.448 2.949a2.363 2.363 0 0 1 1.931 2.32c0 1.63-1.423 1.671-1.423 3.614a3 3 0 0 0 2.795 2.992C57.025 29.263 58 30.4 58 31.513a2.373 2.373 0 0 1-2.371 2.366H38.425c-1.555 0-3 1.252-3 2.887 0 .505.128 1.01.383 1.465C38.05 42.462 39 46.475 39 47.4c0 1.006-.748 2.599-2.758 2.599-1.566 0-1.783-.114-3.117-3.509-3.094-7.864-7.718-12.488-10.122-12.488-1.726 0-3.003 1.41-3.003 3 0 .88.385 1.752 1.127 2.344C29.763 46.25 26.425 56 36.237 56 41.725 56 45 51.625 45 47.4c0-1.587-.666-4.401-1.854-7.416H55.63c4.509.003 8.371-3.747 8.371-8.472 0-2.787-1.513-5.387-3.813-6.875Z"/>
</svg>
