<svg xmlns="http://www.w3.org/2000/svg" width="525" height="525" fill="none" viewBox="0 0 525 525">
  <path fill="#455A64" d="M393.75 43.75H284.375c0 12.031-9.844 21.875-21.875 21.875s-21.875-9.844-21.875-21.875H131.25c-24.062 0-43.75 19.688-43.75 43.75v350c0 24.062 19.688 43.75 43.75 43.75h262.5c24.062 0 43.75-19.688 43.75-43.75v-350c0-24.063-19.688-43.75-43.75-43.75Z"/>
  <path fill="#fff" d="M393.75 448.438h-262.5c-6.563 0-10.938-4.376-10.938-10.938v-350c0-6.563 4.375-10.938 10.938-10.938h262.5c6.562 0 10.938 4.376 10.938 10.938v350c0 6.562-4.376 10.938-10.938 10.938Z"/>
  <path fill="#90A4AE" d="M284.375 43.75c0 12.031-9.844 21.875-21.875 21.875s-21.875-9.844-21.875-21.875h-76.563V87.5c0 12.031 9.844 21.875 21.876 21.875h153.124c12.032 0 21.876-9.844 21.876-21.875V43.75h-76.563Z"/>
  <path fill="#90A4AE" d="M262.5 0c-24.062 0-43.75 19.688-43.75 43.75 0 24.063 19.688 43.75 43.75 43.75s43.75-19.688 43.75-43.75C306.25 19.687 286.562 0 262.5 0Zm0 65.625c-12.031 0-21.875-9.844-21.875-21.875s9.844-21.875 21.875-21.875 21.875 9.844 21.875 21.875-9.844 21.875-21.875 21.875Z"/>
  <path fill="#CFD8DC" d="M229.688 218.75h131.25v21.875h-131.25V218.75Zm-65.626-10.938h43.75v43.75h-43.75v-43.75Z"/>
  <path fill="#03A9F4" d="M229.688 317.188h131.25v21.874h-131.25v-21.874Zm-65.626-10.938h43.75V350h-43.75v-43.75Z"/>
</svg>
