<svg xmlns="http://www.w3.org/2000/svg" width="64" height="56" fill="none" viewBox="0 0 64 56">
  <path fill="#fff" d="M12 19.887H4c-2.209 0-4 1.792-4 3.888v27.888c0 2.208 1.791 3.887 4 3.887h8c2.209 0 4-1.791 4-3.887V23.888c0-2.1-1.787-4-4-4Zm52 4.488c0-4.611-3.756-8.365-8.371-8.365H43.146C44.337 12.887 45 10.187 45 8.6 45 4.375 41.725.003 36.242.003c-5.826 0-7.42 4.054-8.7 7.312C23.583 17.378 20 15.614 20 18.999a3.002 3.002 0 0 0 4.874 2.341c9.595-7.671 7.246-15.337 11.369-15.337C38.252 6.003 39 7.596 39 8.6c0 .926-.95 4.944-3.194 8.949a2.992 2.992 0 0 0-.383 1.465c0 1.74 1.429 2.887 3 2.887h17.2c1.315.11 2.377 1.173 2.377 2.473 0 1.226-.97 2.254-2.209 2.339a3 3 0 0 0-2.795 2.992c0 1.934 1.424 1.994 1.424 3.614 0 3.171-4.379 1.542-4.379 5.269 0 1.402.8 1.629.8 2.781 0 2.833-3.722 1.72-3.722 5.08 0 .564.139.745.139 1.182A2.373 2.373 0 0 1 44.886 50H38.32a15.003 15.003 0 0 1-8.937-2.976l-4.583-3.44a2.98 2.98 0 0 0-1.797-.6c-1.732 0-3.004 1.422-3.004 3.004 0 .911.414 1.803 1.2 2.392l4.583 3.44A21.043 21.043 0 0 0 38.325 56h6.566c4.416 0 8.045-3.436 8.35-7.775a8.307 8.307 0 0 0 3.524-7.994 8.36 8.36 0 0 0 3.66-6.91c0-.659-.079-1.315-.234-1.955C62.486 29.762 64 27.275 64 24.375Z"/>
</svg>
