<svg xmlns="http://www.w3.org/2000/svg" width="32" height="32" fill="none" viewBox="0 0 32 32">
  <g clip-path="url(#a)">
    <path fill="#fff" d="M15.238 21.238a1.754 1.754 0 0 1-2.476 0l-4-4a1.754 1.754 0 0 1 0-2.476 1.754 1.754 0 0 1 2.476 0L14 17.526l6.762-6.762a1.754 1.754 0 0 1 2.476 0 1.754 1.754 0 0 1 0 2.475l-8 8ZM32 16c0 8.837-7.163 16-16 16-8.838 0-16-7.163-16-16C0 7.162 7.162 0 16 0c8.837 0 16 7.162 16 16ZM16 3C8.819 3 3 8.819 3 16s5.819 13 13 13 13-5.819 13-13S23.181 3 16 3Z"/>
  </g>
  <defs>
    <clipPath id="a">
      <path fill="#fff" d="M0 0h32v32H0z"/>
    </clipPath>
  </defs>
</svg>
